<?xml version="1.0" encoding="utf-8"?>
<!-- Generator: Adobe Illustrator 16.0.0, SVG Export Plug-In . SVG Version: 6.00 Build 0)  -->
<!DOCTYPE svg PUBLIC "-//W3C//DTD SVG 1.1//EN" "http://www.w3.org/Graphics/SVG/1.1/DTD/svg11.dtd">
<svg version="1.1" id="Layer_1" xmlns="http://www.w3.org/2000/svg" xmlns:xlink="http://www.w3.org/1999/xlink" x="0px" y="0px"
	 width="64px" height="40px" viewBox="36 41 28 18" enable-background="new 36 41 28 18" xml:space="preserve">
<g>
	<path d="M63,41.5H37c-0.553,0-1,0.447-1,1v15c0,0.553,0.447,1,1,1h19.118H63c0.553,0,1-0.447,1-1v-15
		C64,41.947,63.553,41.5,63,41.5z M63,57.5H37v-15h26V57.5z"/>
	<path d="M52.842,48.297h-1.706v-3.409h-2.272v3.409h-1.705l2.843,2.843L52.842,48.297z M55.307,52.011
		c-0.119-0.129-0.916-0.98-1.143-1.202c-0.149-0.147-0.366-0.237-0.592-0.237h-1l1.742,1.701h-2.013c-0.06,0-0.112,0.03-0.139,0.076
		l-0.464,1.063H48.3l-0.464-1.063c-0.026-0.046-0.079-0.076-0.138-0.076h-2.013l1.741-1.701h-0.999c-0.227,0-0.44,0.09-0.593,0.237
		c-0.226,0.222-1.023,1.076-1.142,1.202c-0.278,0.295-0.431,0.53-0.359,0.823l0.318,1.746c0.074,0.292,0.393,0.533,0.712,0.533
		h9.271c0.318,0,0.64-0.241,0.711-0.533l0.318-1.746C55.737,52.541,55.585,52.306,55.307,52.011z"/>
</g>
</svg>
