<svg version="1.1" xmlns="http://www.w3.org/2000/svg" xmlns:xlink="http://www.w3.org/1999/xlink" x="0" y="0"
	 width="40" height="40" viewBox="30 30 40 40" enable-background="new 30 30 40 40" xml:space="preserve">
<path d="M50.083,34c-0.037,0,0,0.008,0,0.008c-0.037,0-0.073-0.008-0.109-0.008c-6.758,0-11.553,4.904-11.553,11.661
	c0,3.589,1.659,5.757,3.121,7.67c1.423,1.86,2.652,3.466,2.652,6.313c0,0.979,0.288,1.773,0.804,2.334v1.48
	c0,0.35,1.271,1.27,1.271,1.27v0.637c0,0.35,0.271,0.635,0.621,0.635h6.357c0.35,0,0.648-0.285,0.648-0.635v-0.637
	c0,0,1.271-0.92,1.271-1.27v-1.697c0.383-0.543,0.598-1.254,0.598-2.117c0-2.848,1.242-4.453,2.664-6.313
	c1.463-1.913,3.148-4.081,3.148-7.67C61.578,38.904,56.84,34,50.083,34 M56.41,51.787c-1.486,1.944-3.146,4.15-3.146,7.857h-2.865
	h-0.604h-3.058c0-3.707-1.687-5.913-3.173-7.857c-1.396-1.823-2.6-3.396-2.6-6.126c0-5.368,3.75-9.119,9.119-9.119
	c5.084,0,9.022,3.75,9.022,9.119C59.105,48.391,57.805,49.964,56.41,51.787"/>
</svg>
