<svg width="136" height="32" viewBox="0 0 136 32" xmlns="http://www.w3.org/2000/svg"><path d="M18.596 17.915h-5.172l2.586-8.62 2.586 8.62zm116.996 12.562V.427h-13.67l-5.911 16.256L110.1.427H96.306V19.27c0 2.832-2.34 3.57-3.818 3.57-1.478 0-3.695-.738-3.695-3.57V.427H55.665v4.187C52.956 1.782 48.645.181 43.227.181c-8.744 0-15.887 6.404-16.38 14.531L22.045.427H9.729L0 30.477h9.852l1.848-5.912h8.62l1.725 5.912h9.975l-1.601-4.803c3.079 3.57 7.635 5.788 12.808 5.788 8.005 0 14.286-3.695 15.394-10.222h-9.606c-1.355 2.094-3.571 2.833-5.788 2.833-4.557 0-7.02-3.695-7.02-8.251 0-4.557 2.34-8.252 7.02-8.252 2.463 0 4.433.493 5.788 2.71h13.917v20.197h9.236V10.279h7.02v10.838c0 3.695 1.231 6.281 3.694 7.882 2.586 1.6 5.542 2.463 9.606 2.463 3.818 0 7.266-.863 9.73-2.586 2.462-1.601 3.57-4.434 3.57-8.252V12.62l6.404 17.858h7.635l6.774-18.966v18.966h8.991z" fill="#ED3D25" fill-rule="evenodd"></path></svg>
