<?xml version="1.0" encoding="iso-8859-1"?>
<!-- Generator: Adobe Illustrator 16.0.0, SVG Export Plug-In . SVG Version: 6.00 Build 0)  -->
<!DOCTYPE svg PUBLIC "-//W3C//DTD SVG 1.1//EN" "http://www.w3.org/Graphics/SVG/1.1/DTD/svg11.dtd">
<svg version="1.1" id="Capa_1" xmlns="http://www.w3.org/2000/svg" xmlns:xlink="http://www.w3.org/1999/xlink" x="0px" y="0px"
	 width="386.588px" height="386.588px" viewBox="0 0 386.588 386.588" style="enable-background:new 0 0 386.588 386.588;"
	 xml:space="preserve">
<g>
	<path d="M49.419,244.723c16.438,45.334,54.559,79.707,100.532,93.25c8.144,15.661,24.5,26.402,43.342,26.402
		c18.84,0,35.196-10.741,43.336-26.402c45.974-13.543,84.098-47.922,100.532-93.25c27.304-0.311,49.426-22.614,49.426-49.998
		c0-27.379-22.116-49.687-49.426-50c-10.504-28.975-29.892-53.466-54.498-70.939v19.288c0,1.37-0.226,2.685-0.548,3.958
		c18.273,15.82,32.272,36.477,39.524,60.252l2.345,7.699l7.958-1.172c1.814-0.262,3.276-0.387,4.641-0.387
		c17.256,0,31.298,14.042,31.298,31.301c0,17.264-14.042,31.305-31.298,31.305c-1.364,0-2.826-0.128-4.616-0.39l-7.977-1.193
		l-2.351,7.715c-11.923,39.087-42.052,69.715-79.549,84.231c0.006-0.286,0.043-0.566,0.043-0.853c0-9.268-2.643-17.921-7.155-25.318
		c4.524-4.865,7.155-10.607,7.155-16.843c0-17.963-21.452-32.029-48.841-32.029c-27.392,0-48.841,14.066-48.841,32.029
		c0,6.235,2.631,11.978,7.152,16.843c-4.509,7.397-7.152,16.051-7.152,25.318c0,0.286,0.037,0.566,0.043,0.853
		c-37.503-14.517-67.626-45.145-79.549-84.231l-2.351-7.715l-7.974,1.193c-1.796,0.262-3.264,0.39-4.622,0.39
		c-17.26,0-31.295-14.041-31.295-31.305c0-17.259,14.036-31.301,31.295-31.301c1.352,0,2.825,0.125,4.634,0.387l7.961,1.172
		l2.345-7.699c7.979-26.178,24.167-48.519,45.212-64.828V69.639c-27.554,17.628-49.359,43.711-60.733,75.073
		C22.116,145.038,0,167.345,0,194.725C0,222.108,22.116,244.412,49.419,244.723z M163.153,315.534
		c0-5.462,1.571-10.528,4.128-14.949c4.095-7.094,10.917-12.373,19.104-14.31c2.226-0.535,4.521-0.877,6.908-0.877
		c2.387,0,4.683,0.354,6.905,0.877c8.185,1.931,15.004,7.216,19.103,14.31c2.551,4.421,4.128,9.487,4.128,14.949
		c0,2.338-0.322,4.585-0.834,6.771c-2.362,10.182-9.877,18.299-19.649,21.635c-3.051,1.048-6.26,1.736-9.658,1.736
		s-6.61-0.688-9.658-1.736c-9.773-3.336-17.299-11.459-19.649-21.635C163.484,320.119,163.153,317.872,163.153,315.534z
		 M193.294,260.043c18.109,0,30.135,8.026,30.135,13.324c0,0.913-0.475,1.918-1.163,2.935c-8.11-6.011-18.115-9.615-28.972-9.615
		s-20.864,3.604-28.981,9.615c-0.679-1.017-1.16-2.021-1.16-2.935C163.153,268.069,175.176,260.043,193.294,260.043z"/>
	<path d="M153.8,213.169c16.082,0,16.082-24.941,0-24.941S137.718,213.169,153.8,213.169z"/>
	<path d="M232.782,211.61c16.082,0,16.082-24.941,0-24.941C216.701,186.669,216.701,211.61,232.782,211.61z"/>
	<path d="M142.371,124.061h2.076l1.882-0.88c17.156-8.017,29.094-14.273,37.518-19.284c3.879,1.589,8.114,2.5,12.559,2.5
		s8.677-0.911,12.562-2.5c8.428,5.011,20.362,11.268,37.51,19.284l1.888,0.88h2.076c9.858,0,18.115-6.616,20.812-15.606
		c0.591-1.982,1.011-4.04,1.011-6.217V89.298V66.996V44.049c0-12.032-9.785-21.823-21.823-21.823h-2.076l-1.888,0.88
		c-10.498,4.908-19.047,9.158-26.05,12.875c-4.433,2.35-8.202,4.469-11.46,6.409c-2.898-1.185-6.028-1.845-9.268-2.168
		c-1.099-0.112-2.164-0.332-3.294-0.332s-2.201,0.225-3.297,0.338c-3.236,0.323-6.366,0.977-9.262,2.167
		c-3.267-1.945-7.027-4.058-11.46-6.408c-7.008-3.718-15.551-7.962-26.058-12.876l-1.882-0.898h-2.076
		c-12.035,0-21.824,9.789-21.824,21.824v19.516v21.556v17.123c0,2.177,0.417,4.232,1.011,6.217
		C124.258,117.444,132.512,124.061,142.371,124.061z M193.711,58.858c0.88-0.162,1.771-0.274,2.694-0.274s1.82,0.106,2.694,0.274
		c1.599,0.298,3.084,0.904,4.46,1.684c1.863,1.06,3.478,2.488,4.713,4.229c0.073,0.098,0.159,0.191,0.231,0.298
		c1.547,2.314,2.448,5.082,2.448,8.062c0,2.07-0.45,4.034-1.236,5.824c-0.341,0.786-0.749,1.541-1.212,2.244
		c-1.022,1.522-2.326,2.831-3.823,3.879c-0.354,0.243-0.743,0.435-1.121,0.648c-2.119,1.208-4.542,1.957-7.154,1.957
		s-5.033-0.749-7.158-1.957c-0.374-0.213-0.761-0.405-1.117-0.648c-1.501-1.048-2.804-2.357-3.821-3.879
		c-0.475-0.704-0.874-1.458-1.215-2.238c-0.789-1.784-1.236-3.754-1.236-5.824c0-2.98,0.91-5.754,2.457-8.068
		c0.219-0.326,0.487-0.6,0.722-0.898c1.16-1.465,2.582-2.694,4.217-3.623C190.624,59.762,192.11,59.162,193.711,58.858z
		 M251.847,41.248c1.023,0.518,1.718,1.574,1.718,2.789v13.512v20.532v24.15c0,0.25-0.146,0.448-0.195,0.679
		c-0.219,0.904-0.719,1.702-1.522,2.106c-9.365-4.445-19.272-9.502-27.474-14.029c0.499-0.785,0.9-1.638,1.339-2.469
		c2.436-4.619,3.952-9.806,3.952-15.387c0-1.486-0.25-2.898-0.433-4.326c-0.407-3.075-1.108-6.056-2.289-8.805
		c-0.719-1.659-1.607-3.218-2.569-4.722c0.932-0.518,1.905-1.035,2.874-1.564c1.942-1.048,3.927-2.107,5.991-3.179
		C239.255,47.392,245.661,44.186,251.847,41.248z M139.253,55.067v-11.03c0-1.215,0.703-2.277,1.72-2.789
		c5.45,2.588,11.055,5.383,16.443,8.163c2.819,1.461,5.55,2.895,8.163,4.308c0.971,0.523,1.939,1.05,2.874,1.568
		c-0.968,1.501-1.851,3.06-2.563,4.719c-0.986,2.274-1.671,4.688-2.125,7.188c-0.35,1.933-0.6,3.91-0.6,5.943
		c0,5.581,1.516,10.763,3.955,15.388c0.436,0.831,0.834,1.678,1.34,2.463c-8.205,4.527-18.109,9.59-27.475,14.039
		c-0.81-0.414-1.309-1.206-1.525-2.11c-0.058-0.229-0.195-0.43-0.195-0.679V75.177V55.067H139.253z"/>
</g>
<g>
</g>
<g>
</g>
<g>
</g>
<g>
</g>
<g>
</g>
<g>
</g>
<g>
</g>
<g>
</g>
<g>
</g>
<g>
</g>
<g>
</g>
<g>
</g>
<g>
</g>
<g>
</g>
<g>
</g>
</svg>
