<?xml version="1.0" encoding="utf-8"?>
<!-- Generator: Adobe Illustrator 16.0.0, SVG Export Plug-In . SVG Version: 6.00 Build 0)  -->
<!DOCTYPE svg PUBLIC "-//W3C//DTD SVG 1.1//EN" "http://www.w3.org/Graphics/SVG/1.1/DTD/svg11.dtd">
<svg version="1.1" id="Layer_2" xmlns="http://www.w3.org/2000/svg" xmlns:xlink="http://www.w3.org/1999/xlink" x="0px" y="0px"
	 width="960px" height="960px" viewBox="0 0 960 960" enable-background="new 0 0 960 960" xml:space="preserve">
<path d="M482.256,481.197c-79.913,0-154.956,7.642-211.309,21.516c-12.172,2.998-22.755,6.126-31.938,9.304
	c68.744,11.967,152.656,18.999,243.247,18.999c90.588,0,174.497-7.032,243.241-18.999c-9.183-3.178-19.762-6.306-31.937-9.304
	C637.21,488.839,562.165,481.197,482.256,481.197z"/>
<path d="M482.256,466.357c104.692,0,213.972,13.995,270.212,40.551c28.833-5.928,54.396-12.786,75.943-20.39
	c-11.203-12.734-39.344-27.849-92.74-40.997c-67.577-16.64-157.574-25.805-253.415-25.805c-95.848,0-185.843,9.165-253.42,25.805
	c-53.395,13.148-81.537,28.263-92.739,40.997c21.548,7.604,47.112,14.462,75.944,20.39
	C268.281,480.352,377.56,466.357,482.256,466.357z"/>
<path d="M482.256,583.955c-187.906,0-349.517-32.63-421.229-79.505l53.447,196.911c0.326,1.709,0.781,2.923,1.384,4.61l0.139,0.028
	h0.062c15.14,41.644,108.439,75.19,235.281,89.03c-6.325-32.236-14.165-72.229-15.816-80.842
	c-2.859-14.907,14.089-35.106,24.1-48.226C369.632,652.85,377.875,640,391.574,640s176.995,0,194.787,0
	c17.793,0,20.73,8.596,32.758,26.066c12.025,17.467,27.666,37.202,25.413,47.809c-1.298,6.107-9.848,46.349-16.865,79.383
	c125.984-15.679,215.688-51.13,222.531-93.023l53.234-195.877C831.696,551.218,670.115,583.955,482.256,583.955z"/>
<path d="M573.412,817.005c0,11.709-9.492,20.995-21.199,20.995H425.016c-11.709,0-21.2-9.286-21.2-20.995l-12.721-62.703
	c0-11.704,9.493-20.302,21.201-20.302h152.638c11.707,0,21.197,8.598,21.197,20.302L573.412,817.005z"/>
<path d="M853,377.53v-53.736l28.369,5.514c7.936,1.542,14.368-3.544,14.368-10.71l8.621-37.184c0-7.168-6.434-14.157-14.368-15.698
	l-103.455-20.109c-7.935-1.542-14.366,2.943-14.366,10.114l8.621,40.533c0,7.167,6.433,14.756,14.368,16.299L829,319.129v48.824
	c-73.387-26.019-193.833-43.382-331-44.621V263h33.719c7.935,0,14.368-6.511,14.368-13.677l8.62-38.639
	c0-7.168-6.431-12.684-14.365-12.684H436.887c-7.936,0-14.369,5.516-14.369,12.684l8.622,38.639c0,7.166,6.434,13.677,14.368,13.677
	H475v60.277c-140.375,0.583-264.054,18.046-339,44.503v-48.54l34.413-6.689c7.936-1.543,14.369-9.132,14.369-16.299l8.62-40.533
	c0-7.17-6.43-11.655-14.366-10.114L75.582,265.715c-7.936,1.541-14.369,8.53-14.369,15.698l8.62,37.184
	c0,7.166,6.434,12.252,14.369,10.71L114,323.516v52.903c-34.148,15-53.62,32.3-53.62,50.721c0,19.055,20.86,36.912,57.237,52.263
	c34.898-51.314,204.254-78.764,364.639-78.764c160.379,0,329.736,27.45,364.634,78.764c36.379-15.352,57.238-33.208,57.238-52.263
	C904.128,409.172,885.602,392.271,853,377.53z"/>
</svg>
